<svg width="1253" height="441" viewBox="0 0 1253 441" fill="none" xmlns="http://www.w3.org/2000/svg">
<path d="M518.88 348.84C462.24 348.84 421.92 305 421.92 238.76C421.92 172.2 462.56 128.68 520.48 128.68C568.16 128.68 604.32 153 613.6 207.72H579.36C572.32 170.6 549.92 158.44 520.16 158.44C481.12 158.44 454.88 188.2 454.88 237.48V240.04C454.88 289.64 480.8 319.08 519.52 319.08C550.24 319.08 573.6 305.96 580 267.24H613.92C605.6 323.88 568.16 348.84 518.88 348.84ZM679.675 348.84C647.355 348.84 627.515 331.24 627.515 305.32C627.515 271.4 652.795 263.72 686.395 256.36C711.995 250.92 727.675 249.32 730.875 241V238.76C730.875 226.28 721.595 216.68 698.555 216.68C676.155 216.68 663.995 226.92 662.715 243.88V245.8H631.035C631.995 211.88 658.875 191.4 698.875 191.4C737.595 191.4 760.635 208.68 760.635 247.08V321.64L760.955 345H730.555V322.28C720.315 340.2 701.435 348.84 679.675 348.84ZM685.435 324.84C707.515 324.84 728.315 313.64 730.875 284.2V265.64C721.595 272.04 705.595 274.6 690.875 278.12C673.595 282.6 659.515 288.04 659.515 304.04C659.515 316.52 668.795 324.84 685.435 324.84ZM792.078 345V193.96H823.438V221.8C827.918 204.2 839.758 192.68 867.278 192.68H872.078V223.4H857.677C830.798 223.4 823.438 236.84 823.438 267.56V345H792.078ZM952.388 347.56C905.988 347.56 877.188 316.84 877.188 270.44C877.188 223.72 908.228 191.4 951.108 191.4C995.588 191.4 1022.15 221.16 1022.15 268.84V280.36H908.548C910.468 306.28 926.788 321.96 952.388 321.96C977.988 321.96 989.188 309.48 994.948 294.76L1022.79 305.64C1012.55 329 991.108 347.56 952.388 347.56ZM907.908 256.68H989.828C988.548 230.76 974.148 217 950.468 217C927.748 217 911.108 232.04 907.908 256.68ZM1047.39 345V129.32H1079.07V345H1047.39ZM1156.55 348.84C1124.23 348.84 1104.39 331.24 1104.39 305.32C1104.39 271.4 1129.67 263.72 1163.27 256.36C1188.87 250.92 1204.55 249.32 1207.75 241V238.76C1207.75 226.28 1198.47 216.68 1175.43 216.68C1153.03 216.68 1140.87 226.92 1139.59 243.88V245.8H1107.91C1108.87 211.88 1135.75 191.4 1175.75 191.4C1214.47 191.4 1237.51 208.68 1237.51 247.08V321.64L1237.83 345H1207.43V322.28C1197.19 340.2 1178.31 348.84 1156.55 348.84ZM1162.31 324.84C1184.39 324.84 1205.19 313.64 1207.75 284.2V265.64C1198.47 272.04 1182.47 274.6 1167.75 278.12C1150.47 282.6 1136.39 288.04 1136.39 304.04C1136.39 316.52 1145.67 324.84 1162.31 324.84Z" fill="#fff"/>
<mask id="path-2-inside-1_1_138" fill="white">
<path fill-rule="evenodd" clip-rule="evenodd" d="M119.671 71C94.3204 71 73.7695 91.5509 73.7695 116.902V175.918C73.7695 175.918 73.7695 175.918 73.7695 175.918C73.7695 184.519 74.6411 192.917 76.3008 201.027C78.4723 211.64 81.9932 221.76 86.6761 231.203C107.046 272.275 149.406 300.508 198.36 300.508H254.753C279.742 300.508 299.999 280.251 299.999 255.263V194.771C299.999 167.157 277.613 144.771 249.999 144.771H229.507V121C229.507 93.3858 207.122 71 179.507 71H119.671Z"/>
</mask>
<path d="M76.3008 201.027L58.6662 204.636L58.6662 204.636L76.3008 201.027ZM86.6761 231.203L102.802 223.205L102.802 223.205L86.6761 231.203ZM229.507 144.771H211.507V162.771H229.507V144.771ZM91.7695 116.902C91.7695 101.492 104.262 89 119.671 89V53C84.3793 53 55.7695 81.6097 55.7695 116.902H91.7695ZM91.7695 175.918V116.902H55.7695V175.918H91.7695ZM91.7695 175.918C91.7695 175.918 91.7695 175.918 91.7695 175.918C91.7695 175.918 91.7695 175.918 91.7695 175.918C91.7695 175.918 91.7695 175.918 91.7695 175.918V175.918C91.7695 175.918 91.7695 175.918 91.7695 175.918C91.7695 175.918 91.7695 175.918 91.7695 175.918C91.7695 175.918 91.7695 175.918 91.7695 175.918V175.918C91.7695 175.918 91.7695 175.918 91.7695 175.918V175.918C91.7695 175.918 91.7695 175.918 91.7695 175.918V175.918C91.7695 175.918 91.7695 175.918 91.7695 175.918C91.7695 175.918 91.7695 175.918 91.7695 175.918C91.7695 175.918 91.7695 175.918 91.7695 175.918V175.918C91.7695 175.918 91.7695 175.918 91.7695 175.918C91.7695 175.918 91.7695 175.918 91.7695 175.918C91.7695 175.918 91.7695 175.918 91.7695 175.918V175.918C91.7695 175.918 91.7695 175.918 91.7695 175.918C91.7695 175.918 91.7695 175.918 91.7695 175.918C91.7695 175.918 91.7695 175.918 91.7695 175.918V175.918C91.7695 175.918 91.7695 175.918 91.7695 175.918V175.918C91.7695 175.918 91.7695 175.918 91.7695 175.918V175.918C91.7695 175.918 91.7695 175.918 91.7695 175.918C91.7695 175.918 91.7695 175.918 91.7695 175.918C91.7695 175.918 91.7695 175.918 91.7695 175.918V175.918C91.7695 175.918 91.7695 175.918 91.7695 175.918C91.7695 175.918 91.7695 175.918 91.7695 175.918C91.7695 175.918 91.7695 175.918 91.7695 175.918H55.7695C55.7695 175.918 55.7695 175.918 55.7695 175.918C55.7695 175.918 55.7695 175.918 55.7695 175.918C55.7695 175.918 55.7695 175.918 55.7695 175.918V175.918C55.7695 175.918 55.7695 175.918 55.7695 175.918C55.7695 175.918 55.7695 175.918 55.7695 175.918C55.7695 175.918 55.7695 175.918 55.7695 175.918V175.918C55.7695 175.918 55.7695 175.918 55.7695 175.918V175.918C55.7695 175.918 55.7695 175.918 55.7695 175.918V175.918C55.7695 175.918 55.7695 175.918 55.7695 175.918C55.7695 175.918 55.7695 175.918 55.7695 175.918C55.7695 175.918 55.7695 175.918 55.7695 175.918V175.918C55.7695 175.918 55.7695 175.918 55.7695 175.918C55.7695 175.918 55.7695 175.918 55.7695 175.918C55.7695 175.918 55.7695 175.918 55.7695 175.918V175.918C55.7695 175.918 55.7695 175.918 55.7695 175.918C55.7695 175.918 55.7695 175.918 55.7695 175.918C55.7695 175.918 55.7695 175.918 55.7695 175.918V175.918C55.7695 175.918 55.7695 175.918 55.7695 175.918V175.918C55.7695 175.918 55.7695 175.918 55.7695 175.918V175.918C55.7695 175.918 55.7695 175.918 55.7695 175.918C55.7695 175.918 55.7695 175.918 55.7695 175.918C55.7695 175.918 55.7695 175.918 55.7695 175.918V175.918C55.7695 175.918 55.7695 175.918 55.7695 175.918C55.7695 175.918 55.7695 175.918 55.7695 175.918C55.7695 175.918 55.7695 175.918 55.7695 175.918H91.7695ZM93.9353 197.419C92.5173 190.489 91.7695 183.3 91.7695 175.918H55.7695C55.7695 185.738 56.765 195.345 58.6662 204.636L93.9353 197.419ZM102.802 223.205C98.7988 215.134 95.7909 206.486 93.9353 197.419L58.6662 204.636C61.1538 216.793 65.1875 228.387 70.5505 239.2L102.802 223.205ZM198.36 282.508C156.505 282.508 120.251 258.387 102.802 223.205L70.5505 239.2C93.8419 286.163 142.307 318.508 198.36 318.508V282.508ZM254.753 282.508H198.36V318.508H254.753V282.508ZM281.999 255.263C281.999 270.31 269.801 282.508 254.753 282.508V318.508C289.683 318.508 317.999 290.192 317.999 255.263H281.999ZM281.999 194.771V255.263H317.999V194.771H281.999ZM249.999 162.771C267.672 162.771 281.999 177.098 281.999 194.771H317.999C317.999 157.215 287.554 126.771 249.999 126.771V162.771ZM229.507 162.771H249.999V126.771H229.507V162.771ZM211.507 121V144.771H247.507V121H211.507ZM179.507 89C197.18 89 211.507 103.327 211.507 121H247.507C247.507 83.4447 217.063 53 179.507 53V89ZM119.671 89H179.507V53H119.671V89Z" fill="#fff" mask="url(#path-2-inside-1_1_138)"/>
<mask id="path-4-inside-2_1_138" fill="white">
<path fill-rule="evenodd" clip-rule="evenodd" d="M-2.00643e-06 190.672C-8.98308e-07 165.322 20.5509 144.771 45.9016 144.771L104.903 144.771C104.908 144.771 104.912 144.771 104.917 144.771C104.917 144.771 104.918 144.771 104.918 144.771C104.96 144.771 105.001 144.771 105.043 144.771C105.148 144.771 105.253 144.771 105.358 144.772C173.965 145.009 229.508 200.698 229.508 269.361C229.508 269.444 229.508 269.527 229.507 269.61L229.507 325.754C229.507 350.743 209.25 371 184.261 371L123.77 371C96.1553 371 73.7695 348.615 73.7695 321L73.7695 300.508L50 300.508C22.3858 300.508 -5.829e-06 278.123 -4.62194e-06 250.508L-2.00643e-06 190.672Z"/>
</mask>
<path d="M104.903 144.771L104.911 162.771L104.903 162.771L104.903 144.771ZM105.043 144.771L105.06 126.771L105.043 144.771ZM105.358 144.772L105.296 162.771L105.358 144.772ZM229.507 269.61L211.507 269.61L211.507 269.539L211.508 269.468L229.507 269.61ZM184.261 371L184.261 389L184.261 371ZM123.77 371L123.77 353L123.77 371ZM73.7695 321L91.7695 321L73.7695 321ZM73.7695 300.508L73.7695 282.508L91.7695 282.508L91.7695 300.508L73.7695 300.508ZM45.9016 162.771C30.492 162.771 18 175.263 18 190.672L-18 190.672C-18 155.381 10.6097 126.771 45.9016 126.771L45.9016 162.771ZM104.903 162.771L45.9016 162.771L45.9016 126.771L104.903 126.771L104.903 162.771ZM104.917 162.771C104.915 162.771 104.913 162.771 104.911 162.771L104.895 126.771C104.902 126.771 104.91 126.771 104.917 126.771L104.917 162.771ZM104.918 162.771C104.888 162.771 104.864 162.771 104.849 162.771C104.842 162.771 104.836 162.771 104.832 162.771C104.83 162.771 104.828 162.771 104.827 162.771C104.827 162.771 104.827 162.771 104.826 162.771C104.826 162.771 104.826 162.771 104.826 162.771C104.826 162.771 104.826 162.771 104.826 162.771C104.826 162.771 104.826 162.771 104.826 162.771C104.825 162.771 104.828 162.771 104.832 162.771C104.835 162.771 104.841 162.771 104.849 162.771C104.864 162.771 104.887 162.771 104.917 162.771L104.917 126.771C104.947 126.771 104.971 126.771 104.986 126.771C104.993 126.771 105 126.771 105.003 126.771C105.005 126.771 105.007 126.771 105.008 126.771C105.008 126.771 105.009 126.771 105.009 126.771C105.009 126.771 105.009 126.771 105.009 126.771C105.009 126.771 105.009 126.771 105.009 126.771C105.009 126.771 105.009 126.771 105.009 126.771C105.01 126.771 105.007 126.771 105.004 126.771C105 126.771 104.994 126.771 104.986 126.771C104.972 126.771 104.948 126.771 104.918 126.771L104.918 162.771ZM105.025 162.771C104.989 162.771 104.954 162.771 104.918 162.771L104.918 126.771C104.965 126.771 105.013 126.771 105.06 126.771L105.025 162.771ZM105.296 162.771C105.206 162.771 105.115 162.771 105.025 162.771L105.06 126.771C105.18 126.771 105.301 126.771 105.421 126.772L105.296 162.771ZM211.508 269.361C211.508 210.619 163.99 162.974 105.296 162.771L105.421 126.772C183.941 127.043 247.508 190.778 247.508 269.361L211.508 269.361ZM211.508 269.468C211.508 269.434 211.508 269.398 211.508 269.361L247.508 269.361C247.508 269.49 247.508 269.621 247.507 269.752L211.508 269.468ZM211.507 325.754L211.507 269.61L247.507 269.61L247.507 325.754L211.507 325.754ZM184.261 353C199.309 353 211.507 340.802 211.507 325.754L247.507 325.754C247.507 360.684 219.191 389 184.261 389L184.261 353ZM123.77 353L184.261 353L184.261 389L123.77 389L123.77 353ZM91.7695 321C91.7695 338.673 106.096 353 123.77 353L123.77 389C86.2142 389 55.7695 358.556 55.7695 321L91.7695 321ZM91.7695 300.508L91.7695 321L55.7695 321L55.7695 300.508L91.7695 300.508ZM50 282.508L73.7695 282.508L73.7695 318.508L50 318.508L50 282.508ZM18 250.508C18 268.182 32.3269 282.508 50 282.508L50 318.508C12.4446 318.508 -18 288.064 -18 250.508L18 250.508ZM18 190.672L18 250.508L-18 250.508L-18 190.672L18 190.672Z" fill="#ccc" mask="url(#path-4-inside-2_1_138)"/>
</svg>
