<?xml version="1.0" encoding="UTF-8"?>
<svg xmlns="http://www.w3.org/2000/svg" fill="#fff" xmlns:xlink="http://www.w3.org/1999/xlink" version="1.1" id="Layer_1" x="0px" y="0px" viewBox="0 0 297 189.1" style="enable-background:new 0 0 297 189.1;" xml:space="preserve"> <style type="text/css"> .st0{enable-background:new ;} </style> <g> <path d="M150.8,80.3c-1.8,1.2-3.4,2.5-5.2,3.7c-3.2,2.2-6.8,4.1-10.7,4.7c-3.4,0.6-6.9,0.4-10.3,0c-3.5-0.4-7.1-1-10.2-2.6 c-2.1-1-4.1-2.4-6-3.8c-5.9-4.4-10.9-9.7-15.6-15.3c-0.7-1-1.6-1.9-2.5-2.9c-0.4-0.6-0.4-0.9,0-1.5c3.1-3.4,6.6-5.9,10.6-8.1 c7.1-4,14.6-6.2,22.7-6.8c9-0.6,17.2,1.8,24.9,6.6c1,0.6,1.8,0.7,2.8,0c3.5-2.2,7.4-4,11.3-5.4c5.9-2.2,11.9-2.4,18-1.2 c4.9,0.9,9.4,2.9,13.8,4.9c5.3,2.4,10.4,5.2,14.9,8.8c0.1,0.1,0.3,0.3,0.4,0.4c0.7,0.6,0.7,0.9,0.1,1.6c-2.1,2.8-4.1,5.6-6.5,8.2 c-3.1,3.4-6.3,6.6-10,9.3c-5.6,4-11.8,6.8-18.7,7.7c-3.2,0.4-6.5,0-9.6-0.9c-3.8-0.9-7.7-2.4-10.9-4.7 C153,82.1,151.9,81.2,150.8,80.3z M104.9,65c0.3,0.3,0.4,0.7,0.7,1c2.6,3.2,5.4,6.2,8.5,8.8c4.4,3.5,9.3,6,15.2,5.7 c5.6-0.3,10.2-2.6,14.1-6.5c1.6-1.6,2.9-3.5,4.4-5.4c0.9-1,0.7-1.6-0.1-2.8c-1.6-1.9-3.5-3.7-5.6-5.2c-2.5-2.1-5.4-3.2-8.5-4.1 c-4.3-1-8.5-1.2-12.8,0.1c-2.2,0.7-4.3,1.5-6.5,2.4C110.9,60.6,107.8,62.8,104.9,65z M195.2,65.1l-0.1-0.1 c-0.3-0.1-0.4-0.4-0.7-0.6c-4.3-3.1-8.7-5.6-13.7-7.2c-3.7-1.2-7.5-1.8-11.5-1c-6.9,1.5-12.7,4.7-16.9,10.3 c-0.6,0.7-0.6,1.2-0.1,2.1c2.8,4.9,6.9,8.2,11.8,10.6c2.9,1.3,6,2.2,9.3,1.8c4.3-0.6,8.1-2.2,11.5-4.9 C188.9,72.9,192.1,69.1,195.2,65.1z"></path> <path d="M150,102.2c3.8,10.9,4,21.8,0.1,32.7C146.1,130.5,145.9,107.7,150,102.2z"></path> <path d="M178.3,96.3c8.4,7.8,13.1,17.5,14.4,28.8c-4.4-3.5-7.5-8.1-10-13.1C180.2,107.2,178.4,102.1,178.3,96.3z"></path> <path d="M117.7,95.3c2.1,6.8-3.7,25.3-9.7,31c-0.6-5.7,0.3-11,2.1-16.3C111.6,104.6,114,99.7,117.7,95.3z"></path> <path d="M190.9,8.8c1.8,6-6.2,25.8-11.9,29.4C177.4,31.9,185.2,12.3,190.9,8.8z"></path> <path d="M149.6,2.2c4,10.6,4,21.3,0.1,32.1C145.8,29.5,145.6,8.2,149.6,2.2z"></path> <path d="M107.1,8.6c7.7,8.4,11.6,18.2,12.2,29.6C113.5,35.4,105.7,16.3,107.1,8.6z"></path> <path d="M128.7,76.5c-4,0.3-6.5-2.1-8.4-5.2c-1.8-2.8-1.5-5.7,0-8.5c2.2-4,7.8-5.6,11.6-3.2c5,2.8,6.5,8.5,3.7,13.4 c-1.3,2.2-3.2,3.2-5.6,3.4C129.6,76.3,129.1,76.5,128.7,76.5z"></path> <path d="M173.9,58.4c1.9,0,4.7,1.3,6.8,4.1c2.5,3.5,1.9,9-1.3,12.2c-1.6,1.8-3.5,2.9-6,2.6c-0.6-0.1-1.3-0.1-1.9-0.4 c-4.9-2.2-8.7-8.5-5.4-14.6C167.2,59.8,169.3,58.2,173.9,58.4z"></path> </g> <g class="st0"> <path d="M1.2,157.4c0-0.4,0.4-0.8,0.8-0.8H3l17.7,18.8h0v-17.5c0-0.4,0.3-0.8,0.8-0.8h3.9c0.4,0,0.8,0.4,0.8,0.8v28.6 c0,0.4-0.4,0.8-0.8,0.8h-1L6.7,167.8h0V186c0,0.4-0.3,0.8-0.8,0.8H2c-0.4,0-0.8-0.4-0.8-0.8L1.2,157.4L1.2,157.4z"></path> <path d="M53.2,156.7c8.5,0,15.3,6.8,15.3,15.3s-6.8,15.2-15.3,15.2S38,180.5,38,172S44.7,156.7,53.2,156.7z M53.2,181.7 c5.4,0,9.8-4.4,9.8-9.7c0-5.4-4.4-9.8-9.8-9.8s-9.7,4.5-9.7,9.8S47.9,181.7,53.2,181.7z"></path> <path d="M83.9,162.2h-6.5c-0.5,0-0.8-0.4-0.8-0.8v-3.5c0-0.4,0.3-0.8,0.8-0.8h18.5c0.5,0,0.8,0.4,0.8,0.8v3.5 c0,0.4-0.3,0.8-0.8,0.8h-6.5V186c0,0.4-0.4,0.8-0.8,0.8h-3.9c-0.4,0-0.8-0.4-0.8-0.8V162.2z"></path> <path d="M120.1,156.7c8.5,0,15.3,6.8,15.3,15.3s-6.8,15.2-15.3,15.2s-15.2-6.7-15.2-15.2S111.6,156.7,120.1,156.7z M120.1,181.7 c5.4,0,9.8-4.4,9.8-9.7c0-5.4-4.4-9.8-9.8-9.8c-5.4,0-9.7,4.5-9.7,9.8S114.7,181.7,120.1,181.7z"></path> <path d="M147.1,157.9c0-0.4,0.3-0.8,0.8-0.8H160c5.1,0,9.3,4.1,9.3,9.1c0,3.9-2.6,7.1-6.3,8.6l5.8,10.8c0.3,0.6,0,1.2-0.7,1.2h-4.5 c-0.4,0-0.6-0.2-0.7-0.4l-5.6-11.2h-4.7V186c0,0.4-0.4,0.8-0.8,0.8h-3.9c-0.5,0-0.8-0.4-0.8-0.8L147.1,157.9L147.1,157.9z M159.5,170.6c2.2,0,4.2-1.9,4.2-4.3c0-2.2-1.9-4.1-4.2-4.1h-6.9v8.4C152.6,170.6,159.5,170.6,159.5,170.6z"></path> <path d="M181.4,157.9c0-0.4,0.4-0.8,0.8-0.8h3.9c0.4,0,0.8,0.4,0.8,0.8V186c0,0.4-0.4,0.8-0.8,0.8h-3.9c-0.4,0-0.8-0.4-0.8-0.8 V157.9z"></path> <path d="M214,156.7c8.5,0,15.3,6.8,15.3,15.3s-6.8,15.2-15.3,15.2c-8.5,0-15.2-6.7-15.2-15.2S205.5,156.7,214,156.7z M214,181.7 c5.4,0,9.8-4.4,9.8-9.7c0-5.4-4.4-9.8-9.8-9.8c-5.4,0-9.7,4.5-9.7,9.8S208.6,181.7,214,181.7z"></path> <path d="M240.5,157.9c0-0.4,0.4-0.8,0.8-0.8h4c0.5,0,0.8,0.4,0.8,0.8v17.4c0,3.6,2.5,6.4,6.2,6.4c3.7,0,6.2-2.9,6.2-6.4v-17.4 c0-0.4,0.3-0.8,0.8-0.8h4c0.4,0,0.8,0.4,0.8,0.8v17.7c0,6.4-5.1,11.7-11.8,11.7c-6.7,0-11.8-5.2-11.8-11.7L240.5,157.9L240.5,157.9 z"></path> <path d="M275.8,182.6l1.5-2.6c0.3-0.6,1.1-0.6,1.4-0.3c0.2,0.1,3.7,2.6,6.4,2.6c2.2,0,3.9-1.4,3.9-3.3c0-2.2-1.8-3.6-5.4-5.1 c-4-1.6-8-4.2-8-9.2c0-3.8,2.8-8.2,9.6-8.2c4.3,0,7.6,2.2,8.5,2.9c0.4,0.3,0.6,1,0.3,1.4l-1.6,2.4c-0.3,0.5-1,0.9-1.5,0.5 c-0.3-0.2-3.6-2.3-5.9-2.3c-2.4,0-3.7,1.6-3.7,3c0,2,1.6,3.4,5,4.8c4.1,1.7,8.9,4.1,8.9,9.6c0,4.4-3.8,8.4-9.8,8.4 c-5.4,0-8.5-2.5-9.3-3.3C275.6,183.5,275.4,183.3,275.8,182.6z"></path> </g> </svg>
